<?xml version="1.0" encoding="utf-8"?>
<!-- Generator: Adobe Illustrator 22.1.0, SVG Export Plug-In . SVG Version: 6.00 Build 0)  -->
<svg version="1.1" id="Layer_1" xmlns="http://www.w3.org/2000/svg" xmlns:xlink="http://www.w3.org/1999/xlink" x="0px" y="0px"
	 viewBox="0 0 200 200" style="enable-background:new 0 0 200 200;" xml:space="preserve">
<style type="text/css">
	.st0{fill:#2A90FF;stroke:#808080;stroke-width:2.2;stroke-miterlimit:10;}
</style>
<g>
	<path class="st0" d="M113.2,51.1c-0.7,1.3-1,2.1-1,2.6c-1.9,4.1-3.7,7.9-5.5,11.4c-1.8,3.5-3.6,7.6-5.4,12.1
		C99,83,96.9,88.7,94.9,94.2c-2,5.5-3,10.5-3,14.9c0,2.5,0.7,4.7,2.1,6.5c1.4,1.8,4.1,2.7,7.9,2.7h6.9l-4.5,13.9h-2.4
		c-4.4,0-8.2-0.5-11.3-1.6c-3.1-1.1-5.5-2.6-7.4-4.6c-1.9-2-3.3-4.3-4.1-7.1c-0.8-2.7-1.3-5.8-1.3-9.1c0-1.6,0.1-3.3,0.2-5.1
		c0.1-1.8,0.4-3.6,0.9-5.5c-3.9,5.3-7.7,10.6-11.5,16.1c-3.8,5.4-7.9,11.1-12.3,16.9h-15l10.6-42.9c-4.7,7.3-9.5,14.5-14.4,21.7
		c-4.9,7.2-10.1,14.3-15.7,21.2H3c2.2-2.8,4.4-5.7,6.7-8.6c2.3-2.9,4.5-6,6.8-9.3c4.5-6.5,8.7-12.6,12.5-18.1
		c3.8-5.6,7.5-10.9,10.9-16.1c3.4-5.1,6.8-10.3,10.1-15.4c3.3-5.1,6.6-10.5,10-16.1h15.4l-12,48.3l34.6-48.3h16.7
		C114.3,49,113.9,49.9,113.2,51.1z"/>
	<path class="st0" d="M188.7,51.9c0.8,1.2,1.2,2.5,1.3,3.8c0.1,1.3,0.2,2.6,0.2,4c0,2.8-0.6,5.7-1.8,8.6c-1.2,2.9-2.8,5.7-4.6,8.6
		c-1.8,2.8-3.8,5.6-6,8.4c-2.2,2.7-4.2,5.4-6.1,8.1l-11.5-8.1l6.8-9.1c0.9-1.2,1.9-2.6,3-4c1-1.5,2-2.9,3-4.4
		c0.9-1.5,1.7-2.9,2.3-4.2c0.6-1.3,0.9-2.5,0.9-3.4c-3.2,0-6.6,0.7-10.1,2.1c-3.5,1.4-7.9,3.5-13,6.4c-0.7,0.5-1.6,1.1-2.7,2
		c-1.1,0.8-2.2,1.8-3.3,2.8c-1.1,1-2,2.1-2.8,3.3c-0.8,1.1-1.2,2.2-1.2,3.3c0,1.6,1.1,3.6,3.3,6.1c2.2,2.5,4.6,5.1,7.3,7.9
		c1.1,1.3,2.4,2.7,3.9,4c1.5,1.4,2.8,2.8,4.1,4.3c1.3,1.5,2.4,3.1,3.3,4.7c0.9,1.6,1.3,3.2,1.3,4.8c0,3-0.5,5.8-1.6,8.3
		c-1,2.5-2.5,4.7-4.3,6.4c-1.8,1.8-4,3.2-6.4,4.2s-5,1.5-7.9,1.5h-41.4l4.5-14h36.8c1.4,0,2.6-0.5,3.7-1.6c1-1.1,1.7-2.4,1.8-3.9
		c-2.7-3-5.5-5.9-8.2-8.6c-2.7-2.7-5.2-5.3-7.3-7.9c-2.2-2.5-3.9-5.1-5.2-7.7c-1.3-2.6-2-5.4-2-8.4c0-3.1,0.7-6,2-8.6
		c1.4-2.6,3.1-5.1,5.3-7.3c2.2-2.2,4.6-4.2,7.2-5.9c2.7-1.7,5.3-3.3,8-4.6c2.7-1.3,6.1-2.8,10-4.5c3.9-1.7,8.1-2.6,12.7-2.9
		c2.9,0,5.6,0.3,8.1,0.8C184.9,47.7,187,49.3,188.7,51.9z"/>
</g>
</svg>
